<svg xmlns="http://www.w3.org/2000/svg" viewBox="0 0 64 64" width="64" height="64">
  <defs>
    <linearGradient id="bg" x1="0" y1="0" x2="1" y2="1">
      <stop offset="0%" stop-color="#0a1f0a"/>
      <stop offset="100%" stop-color="#1b3a1b"/>
    </linearGradient>
  </defs>
  <rect width="64" height="64" rx="16" fill="url(#bg)"/>
  <path d="M15 54 V10 H33 C45 10 52 17 52 26 C52 35 45 42 33 42 H27 V54" fill="none" stroke="#e2e8f0" stroke-width="5.5" stroke-linecap="round" stroke-linejoin="round"/>
  <circle cx="36" cy="26" r="11" fill="none" stroke="#66bb6a" stroke-width="2"/>
  <line x1="36" y1="26" x2="36" y2="18" stroke="#66bb6a" stroke-width="2.2" stroke-linecap="round"/>
  <line x1="36" y1="26" x2="42" y2="29" stroke="#66bb6a" stroke-width="1.8" stroke-linecap="round"/>
  <circle cx="36" cy="26" r="1.8" fill="#66bb6a"/>
  <circle cx="36" cy="16" r="1" fill="#66bb6a"/>
  <circle cx="36" cy="36" r="1" fill="#66bb6a"/>
  <circle cx="26" cy="26" r="1" fill="#66bb6a"/>
  <circle cx="46" cy="26" r="1" fill="#66bb6a"/>
  <circle cx="29" cy="19" r="0.7" fill="#66bb6a"/>
  <circle cx="43" cy="19" r="0.7" fill="#66bb6a"/>
  <circle cx="29" cy="33" r="0.7" fill="#66bb6a"/>
  <circle cx="43" cy="33" r="0.7" fill="#66bb6a"/>
</svg>
